<svg width="35" height="44" viewBox="0 0 35 44" fill="none" xmlns="http://www.w3.org/2000/svg">
<path d="M20.417 16.2154C20.417 18.2044 19.1112 19.8169 17.5003 19.8169C15.8895 19.8169 14.5837 18.2044 14.5837 16.2154C14.5837 14.2264 15.8895 12.614 17.5003 12.614C19.1112 12.614 20.417 14.2264 20.417 16.2154Z" stroke="white" stroke-width="1.5"/>
<path d="M27.7087 15.9582C27.7087 20.0717 25.2325 25.213 22.5205 28.6455C20.7366 30.9034 18.8506 32.4219 17.5003 32.4219C16.1501 32.4219 14.2641 30.9034 12.4801 28.6455C9.76818 25.213 7.29199 20.0717 7.29199 15.9582C7.29199 9.13866 11.8624 3.61035 17.5003 3.61035C23.1382 3.61035 27.7087 9.13866 27.7087 15.9582Z" stroke="white" stroke-width="1.5"/>
<path d="M22.0999 29.1616C27.0798 29.9287 30.625 31.9053 30.625 34.2227C30.625 37.2063 24.7487 39.6249 17.5 39.6249C10.2513 39.6249 4.375 37.2063 4.375 34.2227C4.375 31.9053 7.92022 29.9287 12.9001 29.1616" stroke="white" stroke-width="1.5" stroke-linecap="round"/>
</svg>
