<svg width="35" height="44" viewBox="0 0 35 44" fill="none" xmlns="http://www.w3.org/2000/svg">
<path d="M17.5003 11.3435C19.1112 11.3435 20.417 9.7311 20.417 7.74207C20.417 5.75305 19.1112 4.14062 17.5003 4.14062C15.8895 4.14062 14.5837 5.75305 14.5837 7.74207C14.5837 9.7311 15.8895 11.3435 17.5003 11.3435ZM17.5003 11.3435C20.722 11.3435 23.3337 14.5684 23.3337 18.5464V22.1479C23.3337 23.1424 22.6807 23.9486 21.8753 23.9486C21.0699 23.9486 20.417 24.7548 20.417 25.7493V31.1515C20.417 33.1405 19.1112 34.7529 17.5003 34.7529C15.8895 34.7529 14.5837 33.1405 14.5837 31.1515V25.7493C14.5837 24.7548 13.9307 23.9486 13.1253 23.9486C12.3199 23.9486 11.667 23.1424 11.667 22.1479V18.5464C11.667 14.5684 14.2787 11.3435 17.5003 11.3435Z" stroke="white" stroke-width="1.5" stroke-linejoin="round"/>
<path d="M20.4167 29.4849C26.2616 30.0308 30.625 32.1822 30.625 34.7532C30.625 37.7367 24.7487 40.1553 17.5 40.1553C10.2513 40.1553 4.375 37.7367 4.375 34.7532C4.375 32.1822 8.73837 30.0308 14.5833 29.4849" stroke="white" stroke-width="1.5" stroke-linecap="round"/>
</svg>
