<svg width="35" height="35" viewBox="0 0 35 35" fill="none" xmlns="http://www.w3.org/2000/svg">
<circle cx="17.4997" cy="17.5002" r="2.91667" fill="white"/>
<path d="M17.5003 17.4998L32.0837 2.9165M26.2503 17.4998C26.2503 22.3323 22.3328 26.2498 17.5003 26.2498C12.6678 26.2498 8.75033 22.3323 8.75033 17.4998C8.75033 12.6673 12.6678 8.74984 17.5003 8.74984C22.3328 8.74984 26.2503 12.6673 26.2503 17.4998ZM32.0837 17.4998C32.0837 25.554 25.5545 32.0832 17.5003 32.0832C9.44617 32.0832 2.91699 25.554 2.91699 17.4998C2.91699 9.44568 9.44617 2.9165 17.5003 2.9165C25.5545 2.9165 32.0837 9.44568 32.0837 17.4998Z" stroke="white" stroke-width="1.5" stroke-linecap="round"/>
</svg>
