<svg width="40" height="40" viewBox="0 0 40 40" fill="none" xmlns="http://www.w3.org/2000/svg">
<rect width="40" height="40" rx="10" fill="#7152F3"/>
<path fill-rule="evenodd" clip-rule="evenodd" d="M16.2254 14.558C15.9813 14.8021 15.9813 15.1978 16.2254 15.4419C16.4695 15.686 16.8652 15.686 17.1093 15.4419L19.3756 13.1755V23.3333C19.3756 23.6785 19.6554 23.9583 20.0006 23.9583C20.3458 23.9583 20.6256 23.6785 20.6256 23.3333L20.6256 13.1755L22.892 15.4419C23.1361 15.686 23.5319 15.686 23.7759 15.4419C24.02 15.1978 24.02 14.8021 23.7759 14.558L20.4426 11.2247C20.3253 11.1075 20.1664 11.0416 20.0006 11.0416C19.8349 11.0416 19.6759 11.1075 19.5587 11.2247L16.2254 14.558ZM15.2838 17.8909C15.4997 17.6216 15.4564 17.2282 15.1871 17.0123C14.9178 16.7964 14.5244 16.8397 14.3085 17.1091C13.3079 18.3573 12.709 19.9429 12.709 21.6666C12.709 25.6937 15.9736 28.9583 20.0007 28.9583C24.0277 28.9583 27.2923 25.6937 27.2923 21.6666C27.2923 19.9429 26.6934 18.3573 25.6928 17.1091C25.4769 16.8397 25.0835 16.7964 24.8142 17.0123C24.5449 17.2282 24.5016 17.6216 24.7175 17.8909C25.5467 18.9254 26.0423 20.2373 26.0423 21.6666C26.0423 25.0034 23.3374 27.7083 20.0007 27.7083C16.6639 27.7083 13.959 25.0034 13.959 21.6666C13.959 20.2373 14.4546 18.9254 15.2838 17.8909Z" fill="white"/>
</svg>
