<svg width="24" height="24" viewBox="0 0 24 24" fill="none" xmlns="http://www.w3.org/2000/svg">
<path d="M15.5 7C15.5 8.933 13.933 10.5 12 10.5V11.5C14.4853 11.5 16.5 9.48528 16.5 7H15.5ZM12 3.5C13.933 3.5 15.5 5.067 15.5 7H16.5C16.5 4.51472 14.4853 2.5 12 2.5V3.5ZM8.5 7C8.5 5.067 10.067 3.5 12 3.5V2.5C9.51472 2.5 7.5 4.51472 7.5 7H8.5ZM12 10.5C10.067 10.5 8.5 8.933 8.5 7H7.5C7.5 9.48528 9.51472 11.5 12 11.5V10.5ZM18.5 17C18.5 17.8477 17.8942 18.7129 16.7017 19.3943C15.5233 20.0676 13.8621 20.5 12 20.5V21.5C14.0039 21.5 15.8427 21.0369 17.1978 20.2625C18.5388 19.4963 19.5 18.3614 19.5 17H18.5ZM12 13.5C13.8621 13.5 15.5233 13.9324 16.7017 14.6057C17.8942 15.2871 18.5 16.1523 18.5 17H19.5C19.5 15.6386 18.5388 14.5037 17.1978 13.7375C15.8427 12.9631 14.0039 12.5 12 12.5V13.5ZM5.5 17C5.5 16.1523 6.10584 15.2871 7.29832 14.6057C8.47666 13.9324 10.1379 13.5 12 13.5V12.5C9.99611 12.5 8.15735 12.9631 6.80218 13.7375C5.46117 14.5037 4.5 15.6386 4.5 17H5.5ZM12 20.5C10.1379 20.5 8.47666 20.0676 7.29832 19.3943C6.10584 18.7129 5.5 17.8477 5.5 17H4.5C4.5 18.3614 5.46117 19.4963 6.80218 20.2625C8.15735 21.0369 9.99611 21.5 12 21.5V20.5Z" fill="#16151C"/>
</svg>
